<svg xmlns="http://www.w3.org/2000/svg" xmlns:xlink="http://www.w3.org/1999/xlink" viewBox="0,0,256,256" width="64px" height="64px" fill-rule="nonzero"><defs><linearGradient x1="32" y1="6.745" x2="32" y2="55.001" gradientUnits="userSpaceOnUse" id="color-1"><stop offset="0" stop-color="#308c88"></stop><stop offset="1" stop-color="#308c88"></stop></linearGradient><linearGradient x1="32.015" y1="19.091" x2="32.015" y2="46.092" gradientUnits="userSpaceOnUse" id="color-2"><stop offset="0" stop-color="#308c88"></stop><stop offset="1" stop-color="#308c88"></stop></linearGradient></defs><g fill="none" fill-rule="nonzero" stroke="none" stroke-width="1" stroke-linecap="butt" stroke-linejoin="miter" stroke-miterlimit="10" stroke-dasharray="" stroke-dashoffset="0" font-family="none" font-weight="none" font-size="none" text-anchor="none" style="mix-blend-mode: normal"><g transform="scale(4,4)"><path d="M32,58c-14.336,0 -26,-11.664 -26,-26c0,-14.336 11.664,-26 26,-26c14.336,0 26,11.664 26,26c0,14.336 -11.664,26 -26,26zM32,8c-13.233,0 -24,10.767 -24,24c0,13.233 10.767,24 24,24c13.233,0 24,-10.767 24,-24c0,-13.233 -10.767,-24 -24,-24z" fill="url(#color-1)"></path><path d="M31.25,19.092h-10.75c-0.276,0 -0.5,0.224 -0.5,0.5v2c0,0.276 0.224,0.5 0.5,0.5h1.5c1.105,0 2,0.895 2,2v17c0,1.105 -0.895,2 -2,2h-1.5c-0.276,0 -0.5,0.224 -0.5,0.5v2c0,0.276 0.224,0.5 0.5,0.5h20.559c0.516,0 0.967,-0.352 1.092,-0.853l1.862,-7.448c0.075,-0.301 -0.108,-0.607 -0.409,-0.682c-0.045,-0.011 -0.091,-0.017 -0.137,-0.017h-1.13c-0.241,0 -0.455,0.156 -0.529,0.385l-1.138,3.534c-0.399,1.24 -1.553,2.08 -2.856,2.08h-7.814c-1.105,0 -2,-0.895 -2,-2v-7h5c1.657,0 3,1.343 3,3v0h2v-9h-2v0c0,1.657 -1.343,3 -3,3h-5v-7c0,-1.105 0.895,-2 2,-2h7.774c1.274,0 2.267,1.106 2.129,2.373v0l-0.146,1.315c-0.034,0.309 0.188,0.587 0.497,0.621c0.021,0.002 0.041,0.003 0.062,0.003h1.101c0.295,0 0.54,-0.227 0.563,-0.521l0.429,-5.58c0.048,-0.619 -0.416,-1.16 -1.036,-1.208c-0.029,-0.002 -0.058,-0.003 -0.088,-0.003l-10.035,0.001z" fill="url(#color-2)"></path></g></g></svg>