<svg xmlns="http://www.w3.org/2000/svg" xmlns:xlink="http://www.w3.org/1999/xlink" viewBox="0,0,256,256" width="50px" height="50px" fill-rule="nonzero"><g fill="#308c88" fill-rule="nonzero" stroke="none" stroke-width="1" stroke-linecap="butt" stroke-linejoin="miter" stroke-miterlimit="10" stroke-dasharray="" stroke-dashoffset="0" font-family="none" font-weight="none" font-size="none" text-anchor="none" style="mix-blend-mode: normal"><g transform="scale(5.12,5.12)"><path d="M2.09961,6.96094v35.97852h25.45117h2.12891h18.32031v-35.97852h-18.96094h-2.43945zM27.67969,8.96094h18.32031v31.97852h-16.99023c-0.27,-0.95 -0.46937,-1.91867 -0.60937,-2.88867c-0.11,-0.77 -0.17094,-1.52023 -0.21094,-2.24023v-0.00977c0.00755,-0.00131 0.014,-0.0044 0.02148,-0.00586c0.00227,0.06366 -0.00278,0.12153 0,0.18555c0.66,-0.04 1.31852,-0.08992 1.97852,-0.16992c3.52,-0.41 6.99023,-1.34148 10.24023,-2.77148l-0.79883,-1.82812c-2.99,1.31 -6.17992,2.17813 -9.41992,2.57812c-0.66,0.08 -1.33,0.15141 -2,0.19141c-0.00094,0.02 0.00088,0.04244 0,0.0625c-0.00388,-0.00084 -0.00782,-0.00116 -0.01172,-0.00195c0.00024,-0.00688 -0.00024,-0.01461 0,-0.02148c0,-0.02 0.00172,-0.02906 0.01172,-0.03906c-0.01,-0.07 0,-0.13141 0,-0.19141c0.09,-1.69 0.36922,-3.18875 0.69922,-4.46875c0.05,-0.19 0.10039,-0.37101 0.15039,-0.54102c0.01,-0.01 0.00953,-0.02883 0.01953,-0.04883c0.13,-0.46 0.27992,-0.89102 0.41992,-1.29102l0.49023,-1.33984h-0.02344h-8.7168c0.58,-4.02 1.73016,-7.91914 3.41016,-11.61914c0.87,-1.91 1.86953,-3.75953 3.01953,-5.51953zM11.91016,13.97266h2.03711c0.001,1.686 0.00291,3.37159 0.00391,5.05859c-0.684,-0.005 -1.36873,-0.00962 -2.05273,-0.01562c0.003,-1.681 0.00772,-3.36197 0.01172,-5.04297zM34.00977,14.00977v4.9707h1.86523v-4.9707zM10.36523,31.15039c4.011,1.77 8.26105,2.73891 12.62305,2.87891c1.063,0.03 2.12745,0.02117 3.18945,-0.04883c-0.03,0.64 -0.03,1.31 0,2c-0.712,0.05 -1.43548,0.07031 -2.14648,0.07031c-0.371,0 -0.73056,-0.01148 -1.10156,-0.02148c-4.622,-0.15 -9.12495,-1.16883 -13.37695,-3.04883z"></path></g></g></svg>